<?xml version="1.0" encoding="UTF-8"?> <svg xmlns="http://www.w3.org/2000/svg" id="Stone_Age_logo_H_mono_neg" width="274" height="120" viewBox="0 0 137.268 60"><g id="Group_3038" data-name="Group 3038"><path id="Path_1" data-name="Path 1" d="M4.548,37.353a5.381,5.381,0,0,1-3.029-1.282A3.9,3.9,0,0,1,.234,32.961c0-2.841,2.046-4.7,5.331-4.7a6.731,6.731,0,0,1,4.083,1.171,1.189,1.189,0,0,1,.693.919.748.748,0,0,1-.2.528.687.687,0,0,1-.563.258,1.663,1.663,0,0,1-.813-.328,5.018,5.018,0,0,0-3.268-1c-2.234,0-3.532,1.234-3.532,3.075a2.442,2.442,0,0,0,.773,1.96,3.925,3.925,0,0,0,2.237.915l1.832.286A5.513,5.513,0,0,1,9.859,37.2a4.232,4.232,0,0,1,1.392,3.31c0,2.924-2.294,4.741-5.766,4.741A7.409,7.409,0,0,1,.749,43.842C.3,43.549,0,43.256,0,42.82a.848.848,0,0,1,.247-.611.747.747,0,0,1,.547-.223,1.583,1.583,0,0,1,.832.374,5.72,5.72,0,0,0,3.915,1.292c2.445,0,3.946-1.127,3.946-3.086a2.713,2.713,0,0,0-.81-2.1A3.6,3.6,0,0,0,6.5,37.657Z" transform="translate(0 -17.627)" fill="#fff"></path><path id="Path_2" data-name="Path 2" d="M45.466,28.63a1.281,1.281,0,0,1,.77.143.8.8,0,0,1,0,1.313,1.3,1.3,0,0,1-.77.141H41.677V44.213a1.3,1.3,0,0,1-.168.846.907.907,0,0,1-1.47,0,1.324,1.324,0,0,1-.165-.846V30.227H36.086a1.3,1.3,0,0,1-.773-.141.8.8,0,0,1,0-1.313,1.288,1.288,0,0,1,.773-.143Z" transform="translate(-21.817 -17.859)" fill="#fff"></path><path id="Path_3" data-name="Path 3" d="M80.848,42.455c1.041-1.068,1.17-2.262,1.17-5.7s-.129-4.634-1.17-5.705a4.063,4.063,0,0,0-5.754,0c-1.042,1.071-1.171,2.265-1.171,5.705s.129,4.634,1.171,5.7a4.056,4.056,0,0,0,5.754,0M82.134,29.9c1.577,1.586,1.685,3.015,1.685,6.852s-.108,5.268-1.685,6.851a6.093,6.093,0,0,1-8.325,0c-1.582-1.583-1.687-3.015-1.687-6.851s.1-5.267,1.687-6.852a6.093,6.093,0,0,1,8.325,0" transform="translate(-44.989 -17.627)" fill="#fff"></path><path id="Path_4" data-name="Path 4" d="M126.675,44.092a1.181,1.181,0,0,1-.281.9.96.96,0,0,1-.681.283c-.43,0-.71-.258-1.017-.718l-8.552-12.672V44.055a1.331,1.331,0,0,1-.163.846.907.907,0,0,1-1.47,0,1.31,1.31,0,0,1-.164-.846V29.563a1.182,1.182,0,0,1,.278-.9.924.924,0,0,1,.68-.284c.432,0,.7.26,1.016.717l8.549,12.674V29.6a1.34,1.34,0,0,1,.163-.842.911.911,0,0,1,1.475,0,1.328,1.328,0,0,1,.164.842Z" transform="translate(-71.33 -17.701)" fill="#fff"></path><path id="Path_5" data-name="Path 5" d="M169.241,28.63a1.285,1.285,0,0,1,.77.143.807.807,0,0,1,0,1.313,1.3,1.3,0,0,1-.77.141h-7.522v5.891h6.247a1.272,1.272,0,0,1,.77.142.8.8,0,0,1,0,1.309,1.274,1.274,0,0,1-.77.144h-6.247v6.03h7.522a1.322,1.322,0,0,1,.77.141.809.809,0,0,1,0,1.315,1.317,1.317,0,0,1-.77.14h-8.234a.914.914,0,0,1-1.09-1.09V29.721a.916.916,0,0,1,1.09-1.091Z" transform="translate(-99.755 -17.859)" fill="#fff"></path><path id="Path_6" data-name="Path 6" d="M80.05,97.66h6.28l-3.134-8.6Zm2.129-10.533a1.958,1.958,0,0,1,.35-.647.9.9,0,0,1,1.333,0,1.844,1.844,0,0,1,.354.647l5.4,14.477c.165.448.269.859-.081,1.21a.916.916,0,0,1-.653.267.758.758,0,0,1-.457-.147,1.394,1.394,0,0,1-.432-.716l-1.1-3h-7.4l-1.1,3a1.422,1.422,0,0,1-.432.716.772.772,0,0,1-.458.147.918.918,0,0,1-.655-.267c-.351-.352-.232-.762-.07-1.21Z" transform="translate(-47.793 -53.763)" fill="#fff"></path><path id="Path_7" data-name="Path 7" d="M120.8,100.266a3.9,3.9,0,0,0,2.878,1.194,3.953,3.953,0,0,0,2.887-1.161c.95-.963,1.147-2.068,1.147-4.453H124.63a1.3,1.3,0,0,1-.771-.138.809.809,0,0,1,0-1.315,1.314,1.314,0,0,1,.771-.138h3.732a.912.912,0,0,1,1.087,1.091v.3c0,3.051-.266,4.377-1.647,5.75a5.621,5.621,0,0,1-4.128,1.657,5.717,5.717,0,0,1-4.152-1.645c-1.59-1.583-1.7-3.016-1.7-6.854s.116-5.256,1.7-6.851a5.652,5.652,0,0,1,4.14-1.644,5.385,5.385,0,0,1,4.467,2.01,4.483,4.483,0,0,1,1.065,2.424.857.857,0,0,1-.234.659.807.807,0,0,1-.6.234.791.791,0,0,1-.549-.187,1.758,1.758,0,0,1-.422-.749,3.754,3.754,0,0,0-3.741-2.8,3.867,3.867,0,0,0-2.855,1.2c-1.063,1.092-1.169,2.324-1.169,5.7,0,3.44.128,4.639,1.169,5.708" transform="translate(-73.499 -53.686)" fill="#fff"></path><path id="Path_8" data-name="Path 8" d="M169.241,86.445a1.329,1.329,0,0,1,.77.137.808.808,0,0,1,0,1.314,1.284,1.284,0,0,1-.77.142h-7.522v5.89h6.247a1.309,1.309,0,0,1,.77.141.768.768,0,0,1,.341.656.778.778,0,0,1-.341.658,1.292,1.292,0,0,1-.77.142h-6.247v6.029h7.522a1.278,1.278,0,0,1,.77.142.809.809,0,0,1,0,1.315,1.325,1.325,0,0,1-.77.139h-8.234a.915.915,0,0,1-1.09-1.091V87.533a.911.911,0,0,1,1.09-1.088Z" transform="translate(-99.755 -53.924)" fill="#fff"></path><path id="Path_9" data-name="Path 9" d="M270.4,82.488,256.544,74.46V58.4L270.4,66.431Z" transform="translate(-160.031 -36.431)" fill="#6899b1"></path><path id="Path_10" data-name="Path 10" d="M280.534,12.52l12.987,7.521a7.521,7.521,0,0,1,3.553,4.682,4.026,4.026,0,0,0-4.382.176L270.4,37.81l-13.859-8.029,22.124-12.816a4.02,4.02,0,0,0,1.865-4.445" transform="translate(-160.031 -7.81)" fill="#fff"></path><path id="Path_11" data-name="Path 11" d="M256.3,1.03a7.438,7.438,0,0,0-7.555,0l-19.34,11.2a7.485,7.485,0,0,0-1.513,1.137,4.056,4.056,0,0,0,2.344,3.721l8.428,4.881L260.792,9.155a4.02,4.02,0,0,0,1.865-4.445Z" transform="translate(-142.154 0)" fill="#6899b1"></path><path id="Path_12" data-name="Path 12" d="M224.157,68.8a7.523,7.523,0,0,1-2.265-5.427v-22.4a7.535,7.535,0,0,1,2.265-5.429,4.054,4.054,0,0,0,2.344,3.721l8.427,4.881V60.2L226.5,65.078a4.055,4.055,0,0,0-2.344,3.719" transform="translate(-138.415 -22.168)" fill="#fff"></path><path id="Path_13" data-name="Path 13" d="M293.383,66.431l13.86-8.029V74.46l-13.86,8.028Z" transform="translate(-183.011 -36.431)" fill="#9abbcb"></path><path id="Path_14" data-name="Path 14" d="M343.035,44a7.544,7.544,0,0,1,.225,1.883v22.4a7.52,7.52,0,0,1-2.266,5.427A4.053,4.053,0,0,0,338.652,70l-8.428-4.881V49.057l8.428-4.881A4.026,4.026,0,0,1,343.035,44Z" transform="translate(-205.992 -27.086)" fill="#6899b1"></path><path id="Path_15" data-name="Path 15" d="M227.9,109.686a7.419,7.419,0,0,0,1.513,1.137l19.341,11.2a7.438,7.438,0,0,0,7.554,0l6.353-3.68a4.018,4.018,0,0,0-1.865-4.444l-8.265-4.788-13.859-8.028-8.427,4.881a4.054,4.054,0,0,0-2.344,3.719" transform="translate(-142.154 -63.057)" fill="#9abbcb"></path><path id="Path_16" data-name="Path 16" d="M318.015,109.685a7.423,7.423,0,0,1-1.515,1.138l-12.987,7.523a4.019,4.019,0,0,0-1.865-4.444l-8.266-4.788,13.86-8.028,8.428,4.881a4.052,4.052,0,0,1,2.341,3.719Z" transform="translate(-183.01 -63.057)" fill="#fff"></path></g></svg> 